# xmcd
# 
# Track frame offsets:
#     187
#     5937
#     32765
#     53395
#     71150
#     88954
#     106695
#     124007
#     137112
#     152135
#     169940
# 
# Disc length: 2563
# 
# Revision: 3
# Processed by: cddbd v1.5.2PL0 Copyright (c) Steve Scherf et al.
# Submitted via: fre:ac v1.1beta1pre4
# 
DISCID=930a010b
DTITLE=櫻井智 - マクロス7-Mylene Jenius sings Lynn Minmay-
DYEAR=1995
DGENRE=Pop
TTITLE0=Prologue
TTITLE1=愛・おぼえていますか
TTITLE2=0-G Love
TTITLE3=SUNSET BEACH
TTITLE4=マイ・ビューティフル・プレイス
TTITLE5=小白竜 (シャオパイロン)
TTITLE6=やさしさSAYONARA
TTITLE7=私の彼はパイロット
TTITLE8=シルバームーン・レッドムーン
TTITLE9=愛は流れる
TTITLE10=あなたへのLOVE SONG
EXTD=
EXTT0=
EXTT1=
EXTT2=
EXTT3=
EXTT4=
EXTT5=
EXTT6=
EXTT7=
EXTT8=
EXTT9=
EXTT10=
PLAYORDER=
